<svg width="32" height="32" viewBox="0 0 32 32" fill="none" xmlns="http://www.w3.org/2000/svg">
<path fill-rule="evenodd" clip-rule="evenodd" d="M2.16726 19.698C0.620204 21.4527 0.630103 22.8035 2.08354 24.197C3.55707 25.5692 4.90614 25.503 6.57057 23.8593C8.27913 22.1722 16.2226 13.7672 17.8104 11.9662C19.3574 10.2115 19.3475 8.86073 17.8941 7.46725C16.4205 6.09498 15.0715 6.16116 13.407 7.80494C11.6985 9.492 3.75504 17.897 2.16726 19.698ZM7.01118 9.50563C7.01118 7.49192 6.01931 6.50005 4.00559 6.50005C1.99187 6.50005 1 7.49192 1 9.50563C1 11.5194 1.99187 12.5112 4.00559 12.5112C6.01931 12.5112 7.01118 11.5194 7.01118 9.50563ZM24.9893 22.157C24.9893 24.1707 25.9811 25.1625 27.9948 25.1625C30.0086 25.1625 31.0004 24.1707 31.0004 22.157C31.0004 20.1432 30.0086 19.1514 27.9948 19.1514C25.9811 19.1514 24.9893 20.1432 24.9893 22.157ZM14.105 24.197C12.6515 22.8035 12.6416 21.4527 14.1887 19.698C15.7765 17.897 23.7199 9.492 25.4285 7.80494C27.0929 6.16116 28.442 6.09498 29.9155 7.46725C31.369 8.86073 31.3788 10.2115 29.8318 11.9662C28.244 13.7672 20.3006 22.1722 18.592 23.8593C16.9276 25.503 15.5785 25.5692 14.105 24.197Z" fill="#232934"/>
</svg>
